#N canvas 490 211 1000 750 12;
#X obj 85 30 netreceive -u -b 8000;
#X obj 86 73 oscparse;
#X obj 90 115 route obj;
#X obj 71 165 route Obj_A Obj_B Obj_C Obj_D;
#X floatatom 63 208 5 0 0 0 - - - 0;
#X floatatom 120 212 5 0 0 0 - - - 0;
#X floatatom 170 215 5 0 0 0 - - - 0;
#X floatatom 224 214 5 0 0 0 - - - 0;
#X obj 212 59 print RAW;
#X obj 217 104 print PARSED;
#X obj 217 139 print ROUTE;
#X obj 14 104 list trim;
#X obj 112 413 pd_weights;
#X text 112 390 --- weights ---;
#X text 421 427 w_A (Objective A);
#X text 423 457 w_B (Objective B);
#X text 426 490 w_C (Objective C);
#X text 424 519 w_D (Objective D);
#X floatatom 350 430 8 0 0 0 - - -;
#X floatatom 350 460 8 0 0 0 - - -;
#X floatatom 350 490 8 0 0 0 - - -;
#X floatatom 350 520 8 0 0 0 - - -;
#X obj 700 30 pd_params;
#X obj 109 571 pd_atmosphere;
#X obj 600 571 pd_rhythm;
#X obj 350 571 pd_melody;
#X obj 200 635 +~;
#X obj 350 665 +~;
#X obj 350 700 dac~;
#X connect 0 0 1 0;
#X connect 0 0 8 0;
#X connect 1 0 9 0;
#X connect 1 0 11 0;
#X connect 2 0 3 0;
#X connect 2 0 10 0;
#X connect 3 0 4 0;
#X connect 3 0 12 1;
#X connect 3 1 5 0;
#X connect 3 1 12 2;
#X connect 3 2 6 0;
#X connect 3 2 12 3;
#X connect 3 3 7 0;
#X connect 3 3 12 0;
#X connect 11 0 2 0;
#X connect 12 0 18 0;
#X connect 12 1 19 0;
#X connect 12 2 20 0;
#X connect 12 3 21 0;
#X connect 12 0 23 0;
#X connect 12 1 23 1;
#X connect 12 2 23 2;
#X connect 12 3 23 3;
#X connect 12 0 24 0;
#X connect 12 1 24 1;
#X connect 12 2 24 2;
#X connect 12 3 24 3;
#X connect 12 0 25 0;
#X connect 12 1 25 1;
#X connect 12 2 25 2;
#X connect 12 3 25 3;
#X connect 23 0 26 0;
#X connect 24 0 26 1;
#X connect 25 0 27 1;
#X connect 26 0 27 0;
#X connect 27 0 28 0;
#X connect 27 0 28 1;
