#N canvas 4 52 1920 1109 10;
#X text 20 10 Atmosphere - noise bands via vcf~ + detuned pad oscillators;
#X obj 40 35 inlet;
#X obj 200 35 inlet;
#X obj 360 35 inlet;
#X obj 520 35 inlet;
#X text 40 20 w_A;
#X text 200 20 w_B;
#X text 360 20 w_C;
#X text 520 20 w_D;
#X obj 40 75 * 0.5;
#X obj 200 75 * 0.5;
#X obj 360 75 * 0.5;
#X obj 520 75 * 0.5;
#X obj 40 110 pack f 100;
#X obj 200 110 pack f 100;
#X obj 360 110 pack f 100;
#X obj 520 110 pack f 100;
#X obj 40 150 line~;
#X obj 200 150 line~;
#X obj 360 150 line~;
#X obj 520 150 line~;
#X obj 7 195 noise~;
#X obj 162 196 noise~;
#X obj 312 217 noise~;
#X obj 486 198 noise~;
#X obj 70 215 r atm_root_A;
#X obj 232 216 r atm_root_B;
#X obj 394 224 r atm_root_C;
#X obj 564 196 r atm_root_D;
#X obj 70 255 mtof;
#X obj 233 257 mtof;
#X obj 394 262 mtof;
#X obj 565 251 mtof;
#X obj 40 300 vcf~;
#X obj 200 300 vcf~;
#X obj 360 300 vcf~;
#X obj 520 300 vcf~;
#X obj 40 350 *~;
#X obj 200 350 *~;
#X obj 360 350 *~;
#X obj 520 350 *~;
#X obj 120 460 +~;
#X obj 440 460 +~;
#X obj 280 505 +~;
#X obj 280 580 outlet~;
#X text 40 315 root_A (vcf~);
#X text 200 315 root_B (vcf~);
#X text 360 315 root_C (vcf~);
#X text 520 315 root_D (vcf~);
#X obj 280 540 *~ 0.2;
#X obj 727 217 loadbang;
#X msg 727 247 15;
#X msg 847 247 20;
#X msg 967 247 30;
#X msg 1087 247 10;
#X obj 155 235 expr $f1*1.003;
#X obj 155 260 osc~;
#X obj 215 235 expr $f1*0.997;
#X obj 215 260 osc~;
#X obj 185 285 +~;
#X obj 185 310 *~ 0.2;
#X obj 185 335 *~;
#X obj 40 400 +~;
#X obj 330 235 expr $f1*1.003;
#X obj 330 260 osc~;
#X obj 390 235 expr $f1*0.997;
#X obj 390 260 osc~;
#X obj 360 285 +~;
#X obj 360 310 *~ 0.2;
#X obj 360 335 *~;
#X obj 200 400 +~;
#X obj 500 235 expr $f1*1.003;
#X obj 500 260 osc~;
#X obj 560 235 expr $f1*0.997;
#X obj 560 260 osc~;
#X obj 530 285 +~;
#X obj 530 310 *~ 0.2;
#X obj 530 335 *~;
#X obj 360 400 +~;
#X obj 670 235 expr $f1*1.003;
#X obj 670 260 osc~;
#X obj 730 235 expr $f1*0.997;
#X obj 730 260 osc~;
#X obj 700 285 +~;
#X obj 700 310 *~ 0.2;
#X obj 700 335 *~;
#X obj 520 400 +~;
#X connect 1 0 9 0;
#X connect 2 0 10 0;
#X connect 3 0 11 0;
#X connect 4 0 12 0;
#X connect 9 0 13 0;
#X connect 10 0 14 0;
#X connect 11 0 15 0;
#X connect 12 0 16 0;
#X connect 13 0 17 0;
#X connect 14 0 18 0;
#X connect 15 0 19 0;
#X connect 16 0 20 0;
#X connect 17 0 37 1;
#X connect 18 0 38 1;
#X connect 19 0 39 1;
#X connect 20 0 40 1;
#X connect 21 0 33 0;
#X connect 22 0 34 0;
#X connect 23 0 35 0;
#X connect 24 0 36 0;
#X connect 25 0 29 0;
#X connect 26 0 30 0;
#X connect 27 0 31 0;
#X connect 28 0 32 0;
#X connect 29 0 33 1;
#X connect 30 0 34 1;
#X connect 31 0 35 1;
#X connect 32 0 36 1;
#X connect 33 0 37 0;
#X connect 34 0 38 0;
#X connect 35 0 39 0;
#X connect 36 0 40 0;
#X connect 41 0 43 0;
#X connect 42 0 43 1;
#X connect 43 0 49 0;
#X connect 49 0 44 0;
#X connect 50 0 51 0;
#X connect 50 0 52 0;
#X connect 50 0 53 0;
#X connect 50 0 54 0;
#X connect 51 0 33 2;
#X connect 52 0 34 2;
#X connect 53 0 35 2;
#X connect 54 0 36 2;
#X connect 29 0 55 0;
#X connect 29 0 57 0;
#X connect 55 0 56 0;
#X connect 57 0 58 0;
#X connect 56 0 59 0;
#X connect 58 0 59 1;
#X connect 59 0 60 0;
#X connect 60 0 61 0;
#X connect 17 0 61 1;
#X connect 37 0 62 0;
#X connect 61 0 62 1;
#X connect 62 0 41 0;
#X connect 30 0 63 0;
#X connect 30 0 65 0;
#X connect 63 0 64 0;
#X connect 65 0 66 0;
#X connect 64 0 67 0;
#X connect 66 0 67 1;
#X connect 67 0 68 0;
#X connect 68 0 69 0;
#X connect 18 0 69 1;
#X connect 38 0 70 0;
#X connect 69 0 70 1;
#X connect 70 0 41 1;
#X connect 31 0 71 0;
#X connect 31 0 73 0;
#X connect 71 0 72 0;
#X connect 73 0 74 0;
#X connect 72 0 75 0;
#X connect 74 0 75 1;
#X connect 75 0 76 0;
#X connect 76 0 77 0;
#X connect 19 0 77 1;
#X connect 39 0 78 0;
#X connect 77 0 78 1;
#X connect 78 0 42 0;
#X connect 32 0 79 0;
#X connect 32 0 81 0;
#X connect 79 0 80 0;
#X connect 81 0 82 0;
#X connect 80 0 83 0;
#X connect 82 0 83 1;
#X connect 83 0 84 0;
#X connect 84 0 85 0;
#X connect 20 0 85 1;
#X connect 40 0 86 0;
#X connect 85 0 86 1;
#X connect 86 0 42 1;
