#N canvas 100 100 1920 1109 10;
#X text 20 10 Melody - 4 pentatonic voices \, amplitude = w^2 sharpening;
#X obj 40 35 inlet;
#X obj 200 35 inlet;
#X obj 360 35 inlet;
#X obj 520 35 inlet;
#X text 40 20 w_A;
#X text 200 20 w_B;
#X text 360 20 w_C;
#X text 520 20 w_D;
#X obj 40 75 expr $f1*$f1;
#X obj 200 75 expr $f1*$f1;
#X obj 360 75 expr $f1*$f1;
#X obj 520 75 expr $f1*$f1;
#X obj 40 115 pack f 100;
#X obj 200 115 pack f 100;
#X obj 360 115 pack f 100;
#X obj 520 115 pack f 100;
#X obj 40 155 line~;
#X obj 200 155 line~;
#X obj 360 155 line~;
#X obj 520 155 line~;
#X obj 120 75 > 0.1;
#X obj 280 75 > 0.1;
#X obj 440 75 > 0.1;
#X obj 600 75 > 0.1;
#X obj 120 115 change;
#X obj 280 115 change;
#X obj 440 115 change;
#X obj 600 115 change;
#X obj 120 155 metro;
#X obj 280 155 metro;
#X obj 440 155 metro;
#X obj 600 155 metro;
#X obj 185 135 r tempo_A;
#X obj 345 135 r tempo_B;
#X obj 505 135 r tempo_C;
#X obj 665 135 r tempo_D;
#X obj 120 195 t b b;
#X obj 280 195 t b b;
#X obj 440 195 t b b;
#X obj 600 195 t b b;
#X obj 185 235 random 5;
#X obj 345 235 random 5;
#X obj 505 235 random 5;
#X obj 665 235 random 5;
#X obj 185 275 expr ($f1==0)?0:($f1==1)?2:($f1==2)?4:($f1==3)?7:9;
#X obj 345 275 expr ($f1==0)?0:($f1==1)?2:($f1==2)?4:($f1==3)?7:9;
#X obj 505 275 expr ($f1==0)?0:($f1==1)?2:($f1==2)?4:($f1==3)?7:9;
#X obj 665 275 expr ($f1==0)?0:($f1==1)?2:($f1==2)?4:($f1==3)?7:9;
#X obj 120 295 r root_A;
#X obj 280 295 r root_B;
#X obj 440 295 r root_C;
#X obj 600 295 r root_D;
#X obj 185 315 +;
#X obj 345 315 +;
#X obj 505 315 +;
#X obj 665 315 +;
#X obj 185 355 mtof;
#X obj 345 355 mtof;
#X obj 505 355 mtof;
#X obj 665 355 mtof;
#X obj 185 395 osc~;
#X obj 345 395 osc~;
#X obj 505 395 osc~;
#X obj 665 395 osc~;
#X msg 40 395 1 \, 0 600;
#X msg 245 394 1 \, 0 400;
#X msg 402 388 1 \, 0 300;
#X msg 558 386 1 \, 0 800;
#X obj 40 435 line~;
#X obj 245 425 line~;
#X obj 403 431 line~;
#X obj 559 427 line~;
#X obj 120 475 *~;
#X obj 280 475 *~;
#X obj 440 475 *~;
#X obj 600 475 *~;
#X obj 120 515 *~;
#X obj 280 515 *~;
#X obj 440 515 *~;
#X obj 600 515 *~;
#X obj 200 565 +~;
#X obj 480 565 +~;
#X obj 340 610 +~;
#X obj 340 650 *~ 0.3;
#X obj 340 695 outlet~;
#X text 120 490 A;
#X text 280 490 B;
#X text 440 490 C;
#X text 600 490 D;
#X connect 1 0 9 0;
#X connect 1 0 21 0;
#X connect 2 0 10 0;
#X connect 2 0 22 0;
#X connect 3 0 11 0;
#X connect 3 0 23 0;
#X connect 4 0 12 0;
#X connect 4 0 24 0;
#X connect 9 0 13 0;
#X connect 10 0 14 0;
#X connect 11 0 15 0;
#X connect 12 0 16 0;
#X connect 13 0 17 0;
#X connect 14 0 18 0;
#X connect 15 0 19 0;
#X connect 16 0 20 0;
#X connect 17 0 77 1;
#X connect 18 0 78 1;
#X connect 19 0 79 1;
#X connect 20 0 80 1;
#X connect 21 0 25 0;
#X connect 22 0 26 0;
#X connect 23 0 27 0;
#X connect 24 0 28 0;
#X connect 25 0 29 0;
#X connect 26 0 30 0;
#X connect 27 0 31 0;
#X connect 28 0 32 0;
#X connect 29 0 37 0;
#X connect 30 0 38 0;
#X connect 31 0 39 0;
#X connect 32 0 40 0;
#X connect 33 0 29 1;
#X connect 34 0 30 1;
#X connect 35 0 31 1;
#X connect 36 0 32 1;
#X connect 37 0 65 0;
#X connect 37 1 41 0;
#X connect 38 0 66 0;
#X connect 38 1 42 0;
#X connect 39 0 67 0;
#X connect 39 1 43 0;
#X connect 40 0 68 0;
#X connect 40 1 44 0;
#X connect 41 0 45 0;
#X connect 42 0 46 0;
#X connect 43 0 47 0;
#X connect 44 0 48 0;
#X connect 45 0 53 0;
#X connect 46 0 54 0;
#X connect 47 0 55 0;
#X connect 48 0 56 0;
#X connect 49 0 53 1;
#X connect 50 0 54 1;
#X connect 51 0 55 1;
#X connect 52 0 56 1;
#X connect 53 0 57 0;
#X connect 54 0 58 0;
#X connect 55 0 59 0;
#X connect 56 0 60 0;
#X connect 57 0 61 0;
#X connect 58 0 62 0;
#X connect 59 0 63 0;
#X connect 60 0 64 0;
#X connect 61 0 73 0;
#X connect 62 0 74 0;
#X connect 63 0 75 0;
#X connect 64 0 76 0;
#X connect 65 0 69 0;
#X connect 66 0 70 0;
#X connect 67 0 71 0;
#X connect 68 0 72 0;
#X connect 69 0 73 1;
#X connect 70 0 74 1;
#X connect 71 0 75 1;
#X connect 72 0 76 1;
#X connect 73 0 77 0;
#X connect 74 0 78 0;
#X connect 75 0 79 0;
#X connect 76 0 80 0;
#X connect 77 0 81 0;
#X connect 78 0 81 1;
#X connect 79 0 82 0;
#X connect 80 0 82 1;
#X connect 81 0 83 0;
#X connect 82 0 83 1;
#X connect 83 0 84 0;
#X connect 84 0 85 0;
