#N canvas 100 100 700 290 10;
#X text 20 10 Edit objective parameters here. Broadcasts automatically on patch load.;
#X obj 350 35 loadbang;
#X text 100 65 Obj A;
#X text 250 65 Obj B;
#X text 400 65 Obj C;
#X text 550 65 Obj D;
#X text 20 90 root note (MIDI);
#X msg 100 85 60;
#X msg 250 85 62;
#X msg 400 85 64;
#X msg 550 85 67;
#X obj 100 115 send root_A;
#X obj 250 115 send root_B;
#X obj 400 115 send root_C;
#X obj 550 115 send root_D;
#X text 20 150 tempo (ms);
#X msg 100 145 600;
#X msg 250 145 450;
#X msg 400 145 300;
#X msg 550 145 800;
#X obj 100 175 send tempo_A;
#X obj 250 175 send tempo_B;
#X obj 400 175 send tempo_C;
#X obj 550 175 send tempo_D;
#X text 20 210 atm root (MIDI);
#X msg 100 205 36;
#X msg 250 205 55;
#X msg 400 205 72;
#X msg 550 205 84;
#X obj 100 235 send atm_root_A;
#X obj 250 235 send atm_root_B;
#X obj 400 235 send atm_root_C;
#X obj 550 235 send atm_root_D;
#X connect 1 0 7 0;
#X connect 1 0 8 0;
#X connect 1 0 9 0;
#X connect 1 0 10 0;
#X connect 1 0 16 0;
#X connect 1 0 17 0;
#X connect 1 0 18 0;
#X connect 1 0 19 0;
#X connect 1 0 25 0;
#X connect 1 0 26 0;
#X connect 1 0 27 0;
#X connect 1 0 28 0;
#X connect 7 0 11 0;
#X connect 8 0 12 0;
#X connect 9 0 13 0;
#X connect 10 0 14 0;
#X connect 16 0 20 0;
#X connect 17 0 21 0;
#X connect 18 0 22 0;
#X connect 19 0 23 0;
#X connect 25 0 29 0;
#X connect 26 0 30 0;
#X connect 27 0 31 0;
#X connect 28 0 32 0;
