#N canvas 100 100 1920 1109 10;
#X text 20 10 Rhythm - 4 voices gated by w > 0.25 \, noise + pitched tone per hit;
#X obj 103 41 inlet;
#X obj 254 39 inlet;
#X obj 407 33 inlet;
#X obj 585 37 inlet;
#X text 72 41 w_A;
#X text 221 37 w_B;
#X text 376 32 w_C;
#X text 548 34 w_D;
#X obj 40 75 > 0.25;
#X obj 200 75 > 0.25;
#X obj 360 75 > 0.25;
#X obj 520 75 > 0.25;
#X obj 40 110 change;
#X obj 200 110 change;
#X obj 360 110 change;
#X obj 520 110 change;
#X obj 40 150 metro;
#X obj 200 150 metro;
#X obj 360 150 metro;
#X obj 520 150 metro;
#X obj 130 130 r tempo_A;
#X obj 290 130 r tempo_B;
#X obj 450 130 r tempo_C;
#X obj 610 130 r tempo_D;
#X obj 40 195 random 4;
#X obj 200 195 random 3;
#X obj 360 195 random 2;
#X obj 520 195 random 6;
#X obj 40 235 sel 0;
#X obj 200 235 sel 0;
#X obj 360 235 sel 0;
#X obj 520 235 sel 0;
#X msg 40 275 1 \, 0 200;
#X msg 200 275 0.65 \, 0 80;
#X msg 360 275 1 \, 0 40;
#X msg 520 275 1 \, 0 300;
#X obj 40 315 line~;
#X obj 200 315 line~;
#X obj 360 315 line~;
#X obj 520 315 line~;
#X obj 90 362 noise~;
#X obj 240 362 noise~;
#X obj 399 362 noise~;
#X obj 573 357 noise~;
#X obj 89 406 lop~ 150;
#X obj 240 408 bp~ 800 4;
#X obj 399 403 hip~ 2000;
#X obj 574 401 lop~ 80;
#X obj 40 450 *~;
#X obj 200 450 *~;
#X obj 360 450 *~;
#X obj 537 450 *~;
#X obj 40 500 *~;
#X obj 200 500 *~;
#X obj 360 500 *~;
#X obj 520 500 *~;
#X obj 120 555 +~;
#X obj 440 555 +~;
#X obj 280 600 +~;
#X obj 280 645 *~ 0.5;
#X obj 280 690 outlet~;
#X text 86 426 A: low bass;
#X text 237 427 B: mid snap;
#X text 394 425 C: high crisp;
#X text 572 425 D: sub thud;
#X obj 40 362 osc~ 80;
#X obj 200 362 osc~ 200;
#X obj 360 362 osc~ 400;
#X obj 520 362 osc~ 80;
#X msg 40 470 0.5 \, 0 100;
#X msg 200 470 0.3 \, 0 50;
#X msg 360 470 0.5 \, 0 25;
#X msg 520 470 0.8 \, 0 200;
#X obj 40 495 line~;
#X obj 200 495 line~;
#X obj 360 495 line~;
#X obj 520 495 line~;
#X obj 40 520 *~;
#X obj 200 520 *~;
#X obj 360 520 *~;
#X obj 520 520 *~;
#X obj 40 545 +~;
#X obj 200 545 +~;
#X obj 360 545 +~;
#X obj 520 545 +~;
#X connect 1 0 9 0;
#X connect 2 0 10 0;
#X connect 3 0 11 0;
#X connect 4 0 12 0;
#X connect 9 0 13 0;
#X connect 10 0 14 0;
#X connect 11 0 15 0;
#X connect 12 0 16 0;
#X connect 13 0 17 0;
#X connect 14 0 18 0;
#X connect 15 0 19 0;
#X connect 16 0 20 0;
#X connect 17 0 25 0;
#X connect 18 0 26 0;
#X connect 19 0 27 0;
#X connect 20 0 28 0;
#X connect 21 0 17 1;
#X connect 22 0 18 1;
#X connect 23 0 19 1;
#X connect 24 0 20 1;
#X connect 25 0 29 0;
#X connect 26 0 30 0;
#X connect 27 0 31 0;
#X connect 28 0 32 0;
#X connect 29 0 33 0;
#X connect 30 0 34 0;
#X connect 31 0 35 0;
#X connect 32 0 36 0;
#X connect 33 0 37 0;
#X connect 34 0 38 0;
#X connect 35 0 39 0;
#X connect 36 0 40 0;
#X connect 37 0 49 1;
#X connect 38 0 50 1;
#X connect 39 0 51 1;
#X connect 40 0 52 1;
#X connect 41 0 45 0;
#X connect 42 0 46 0;
#X connect 43 0 47 0;
#X connect 44 0 48 0;
#X connect 45 0 49 0;
#X connect 46 0 50 0;
#X connect 47 0 51 0;
#X connect 48 0 52 0;
#X connect 1 0 53 1;
#X connect 2 0 54 1;
#X connect 3 0 55 1;
#X connect 4 0 56 1;
#X connect 29 0 70 0;
#X connect 30 0 71 0;
#X connect 31 0 72 0;
#X connect 32 0 73 0;
#X connect 70 0 74 0;
#X connect 71 0 75 0;
#X connect 72 0 76 0;
#X connect 73 0 77 0;
#X connect 66 0 78 0;
#X connect 74 0 78 1;
#X connect 67 0 79 0;
#X connect 75 0 79 1;
#X connect 68 0 80 0;
#X connect 76 0 80 1;
#X connect 69 0 81 0;
#X connect 77 0 81 1;
#X connect 49 0 82 0;
#X connect 78 0 82 1;
#X connect 50 0 83 0;
#X connect 79 0 83 1;
#X connect 51 0 84 0;
#X connect 80 0 84 1;
#X connect 52 0 85 0;
#X connect 81 0 85 1;
#X connect 82 0 53 0;
#X connect 83 0 54 0;
#X connect 84 0 55 0;
#X connect 85 0 56 0;
#X connect 53 0 57 0;
#X connect 54 0 57 1;
#X connect 55 0 58 0;
#X connect 56 0 58 1;
#X connect 57 0 59 0;
#X connect 58 0 59 1;
#X connect 59 0 60 0;
#X connect 60 0 61 0;
