#N canvas 100 100 700 520 10;
#X text 20 10 Reverb - 4 parallel comb filters \, feedback 0.84;
#X obj 50 40 inlet~;
#X obj 300 480 outlet~;
#X obj 50 100 +~;
#X obj 50 130 delwrite~ c1 50;
#X obj 50 170 delread~ c1 29.3;
#X obj 50 200 *~ 0.84;
#X obj 180 100 +~;
#X obj 180 130 delwrite~ c2 50;
#X obj 180 170 delread~ c2 36.7;
#X obj 180 200 *~ 0.84;
#X obj 310 100 +~;
#X obj 310 130 delwrite~ c3 50;
#X obj 310 170 delread~ c3 41.1;
#X obj 310 200 *~ 0.84;
#X obj 440 100 +~;
#X obj 440 130 delwrite~ c4 50;
#X obj 440 170 delread~ c4 45.3;
#X obj 440 200 *~ 0.84;
#X obj 115 310 +~;
#X obj 375 310 +~;
#X obj 245 370 +~;
#X obj 245 410 *~ 0.25;
#X connect 1 0 3 0;
#X connect 6 0 3 1;
#X connect 3 0 4 0;
#X connect 5 0 6 0;
#X connect 5 0 18 0;
#X connect 1 0 7 0;
#X connect 10 0 7 1;
#X connect 7 0 8 0;
#X connect 9 0 10 0;
#X connect 9 0 18 1;
#X connect 1 0 11 0;
#X connect 14 0 11 1;
#X connect 11 0 12 0;
#X connect 13 0 14 0;
#X connect 13 0 19 0;
#X connect 1 0 15 0;
#X connect 18 0 15 1;
#X connect 15 0 16 0;
#X connect 17 0 18 0;
#X connect 17 0 19 1;
#X connect 18 0 20 0;
#X connect 19 0 20 1;
#X connect 20 0 21 0;
#X connect 21 0 22 0;
#X connect 22 0 2 0;
