#N canvas 449 413 1920 1109 10;
#X text 30 10 d_D (arrives last \, triggers computation);
#X text 250 10 d_A;
#X text 370 10 d_B;
#X text 490 10 d_C;
#X obj 30 30 inlet;
#X obj 250 30 inlet;
#X obj 370 30 inlet;
#X obj 490 30 inlet;
#X obj 16 77 expr exp(-0.008*$f2)/(exp(-0.008*$f1)+exp(-0.008*$f2)+exp(-0.008*$f3)+exp(-0.008*$f4));
#X obj 31 124 expr exp(-0.008*$f3)/(exp(-0.008*$f1)+exp(-0.008*$f2)+exp(-0.008*$f3)+exp(-0.008*$f4));
#X obj 44 170 expr exp(-0.008*$f4)/(exp(-0.008*$f1)+exp(-0.008*$f2)+exp(-0.008*$f3)+exp(-0.008*$f4));
#X obj 47 223 expr exp(-0.008*$f1)/(exp(-0.008*$f1)+exp(-0.008*$f2)+exp(-0.008*$f3)+exp(-0.008*$f4));
#X floatatom 516 109 8 0 0 0 - - - 0;
#X floatatom 516 148 8 0 0 0 - - - 0;
#X floatatom 527 186 8 0 0 0 - - - 0;
#X floatatom 543 238 8 0 0 0 - - - 0;
#X text 510 85 w_A (Objective A);
#X text 510 125 w_B (Objective B);
#X text 510 165 w_C (Objective C);
#X text 510 205 w_D (Objective D);
#X obj 30 320 outlet;
#X obj 130 320 outlet;
#X obj 230 320 outlet;
#X obj 330 320 outlet;
#X text 30 300 w_A;
#X text 130 300 w_B;
#X text 230 300 w_C;
#X text 330 300 w_D;
#X text 26 383 inlet order: d_D (hot) \, d_A \, d_B \, d_C;
#X text 25 402 expr mapping: $f1=d_D \, $f2=d_A \, $f3=d_B \, $f4=d_C;
#X connect 4 0 8 0;
#X connect 4 0 9 0;
#X connect 4 0 10 0;
#X connect 4 0 11 0;
#X connect 5 0 8 1;
#X connect 5 0 9 1;
#X connect 5 0 10 1;
#X connect 5 0 11 1;
#X connect 6 0 8 2;
#X connect 6 0 9 2;
#X connect 6 0 10 2;
#X connect 6 0 11 2;
#X connect 7 0 8 3;
#X connect 7 0 9 3;
#X connect 7 0 10 3;
#X connect 7 0 11 3;
#X connect 8 0 12 0;
#X connect 8 0 20 0;
#X connect 9 0 13 0;
#X connect 9 0 21 0;
#X connect 10 0 14 0;
#X connect 10 0 22 0;
#X connect 11 0 15 0;
#X connect 11 0 23 0;
